<svg width="341" height="385" xmlns="http://www.w3.org/2000/svg" xmlns:xlink="http://www.w3.org/1999/xlink" overflow="hidden"><g transform="translate(-126 -703)"><g><g><g><path d="M1726.41 1129.78 1715.77 1131.7C1687.89 1138.26 1663.92 1156.16 1643.84 1185.4L1638.76 1197.1C1635.82 1204.73 1633.76 1212.02 1632.59 1218.96 1631.42 1225.91 1631.13 1232.52 1631.73 1238.78 1632.92 1251.31 1637.66 1262.48 1645.94 1272.28 1651.11 1277.9 1659.12 1282.42 1669.99 1285.82 1679.07 1289 1694.57 1291.53 1716.49 1293.42 1754.51 1297.25 1779.46 1298.95 1791.34 1298.5 1807.26 1298.45 1824.65 1296.98 1843.52 1294.08 1853.41 1292.15 1859.96 1289.46 1863.18 1286 1867.27 1281.86 1869.77 1275.59 1870.69 1267.18L1777.3 1254.17C1768.67 1246.49 1759.39 1232.04 1749.48 1210.83 1740.89 1190.45 1734.59 1164.68 1730.56 1133.52 1730.18 1131.42 1728.79 1130.17 1726.41 1129.78" fill="#3B82F6" fill-opacity="0.996" transform="matrix(1.00005 0 0 1 -1504.86 -212.42)"/><path d="M1875.27 1129.78 1885.9 1131.7C1913.78 1138.26 1937.76 1156.16 1957.84 1185.4L1962.91 1197.1C1965.86 1204.73 1967.91 1212.02 1969.09 1218.96 1970.26 1225.91 1970.55 1232.52 1969.95 1238.78 1968.75 1251.31 1964.02 1262.48 1955.74 1272.28 1950.57 1277.9 1942.55 1282.42 1931.69 1285.82 1922.61 1289 1907.11 1291.53 1885.19 1293.42 1847.17 1297.25 1822.22 1298.95 1810.34 1298.5 1794.42 1298.45 1777.02 1296.98 1758.16 1294.08 1748.27 1292.15 1741.72 1289.46 1738.5 1286 1734.41 1281.86 1731.91 1275.59 1730.99 1267.18L1824.37 1254.17C1833.01 1246.49 1842.29 1232.04 1852.2 1210.83 1860.78 1190.45 1867.09 1164.68 1871.12 1133.52 1871.5 1131.42 1872.88 1130.17 1875.27 1129.78" fill="#3B82F6" fill-opacity="0.996" transform="matrix(1.00005 0 0 1 -1504.86 -212.42)"/><path d="M1801.14 1140.31 1799.8 1140.33C1796.27 1140.41 1793.04 1140.85 1790.11 1141.62 1783.74 1149.94 1780.02 1156.04 1778.94 1159.91 1778.73 1160.75 1778.83 1161.48 1779.23 1162.1 1784.58 1166.98 1788.4 1172.38 1790.7 1178.31 1788.91 1181.13 1787.27 1183.93 1785.76 1186.71 1784.83 1188.12 1782.87 1192.23 1779.89 1199.03 1777.69 1204.44 1776.04 1209.76 1774.94 1214.99 1773.58 1220.97 1772.7 1227.36 1772.28 1234.18 1772.07 1237.59 1771.98 1241.1 1772.01 1244.72 1771.88 1246.39 1772.19 1252.05 1772.93 1261.7L1821.3 1273.47C1819.71 1249.49 1818.55 1235.36 1817.84 1231.06 1816.6 1223.03 1814.24 1211.68 1810.77 1197.01 1810.09 1193.7 1809.52 1190.06 1809.08 1186.08 1808.84 1183.8 1808.7 1181.02 1808.67 1177.75 1809.23 1167.43 1809.5 1160.16 1809.51 1155.94L1809.42 1152.74C1808.99 1148.01 1808.74 1145.62 1808.65 1145.57 1808.14 1143.08 1807.8 1141.82 1807.63 1141.77 1807.37 1141.21 1807.08 1140.83 1806.76 1140.65L1801.14 1140.31" fill="#3B82F6" fill-opacity="0.996" transform="matrix(1.00005 0 0 1 -1504.86 -212.42)"/><path d="M1800.54 1140.31 1801.88 1140.33C1805.41 1140.41 1808.64 1140.85 1811.57 1141.62 1817.93 1149.94 1821.66 1156.04 1822.74 1159.91 1822.95 1160.75 1822.85 1161.48 1822.45 1162.1 1817.1 1166.98 1813.27 1172.38 1810.98 1178.31 1812.76 1181.13 1814.41 1183.93 1815.92 1186.71 1816.85 1188.12 1818.81 1192.23 1821.79 1199.03 1823.99 1204.44 1825.64 1209.76 1826.74 1214.99 1828.1 1220.97 1828.98 1227.36 1829.4 1234.18 1829.61 1237.59 1829.69 1241.1 1829.67 1244.72 1829.8 1246.39 1829.49 1252.05 1828.74 1261.7L1780.37 1273.47C1781.97 1249.49 1783.13 1235.36 1783.84 1231.06 1785.08 1223.03 1787.43 1211.68 1790.91 1197.01 1791.59 1193.7 1792.15 1190.06 1792.6 1186.08 1792.84 1183.8 1792.97 1181.02 1793.01 1177.75 1792.45 1167.43 1792.17 1160.16 1792.17 1155.94L1792.26 1152.74C1792.68 1148.01 1792.94 1145.62 1793.03 1145.57 1793.54 1143.08 1793.88 1141.82 1794.05 1141.77 1794.31 1141.21 1794.6 1140.83 1794.92 1140.65L1800.54 1140.31" fill="#3B82F6" fill-opacity="0.996" transform="matrix(1.00005 0 0 1 -1504.86 -212.42)"/><path d="M1798.69 916.554 1791.34 916.927C1771.84 918.914 1753.26 928.852 1735.58 946.741 1726.79 956.49 1720.53 967.141 1716.8 978.693L1714.49 987.526C1713.26 993.527 1712.66 999.754 1712.7 1006.21 1712.8 1028.24 1720.35 1048.66 1735.35 1067.47 1740.07 1073.01 1745.42 1077.88 1751.41 1082.09L1760.87 1087.9C1767.49 1091.43 1774.76 1094.3 1782.66 1096.51 1787.51 1097.25 1791.33 1097.59 1794.12 1097.52 1804.91 1097.52 1814.14 1094.57 1821.8 1088.66 1825.64 1085.71 1829.08 1082.02 1832.14 1077.6 1835.19 1073.17 1837.86 1068 1840.13 1062.1L1843.25 1052.69 1814.12 918.136C1810.06 917.205 1804.92 916.678 1798.69 916.554" fill="#3B82F6" fill-opacity="0.996" transform="matrix(1.00005 0 0 1 -1504.86 -212.42)"/><path d="M1802.99 916.554 1810.34 916.926C1829.84 918.914 1848.42 928.852 1866.1 946.741 1874.89 956.49 1881.15 967.141 1884.87 978.693L1887.19 987.526C1888.42 993.527 1889.02 999.754 1888.98 1006.21 1888.88 1028.24 1881.32 1048.66 1866.33 1067.47 1861.61 1073.01 1856.26 1077.88 1850.27 1082.09L1840.81 1087.9C1834.18 1091.43 1826.92 1094.3 1819.02 1096.51 1814.17 1097.25 1810.35 1097.59 1807.56 1097.52 1796.77 1097.52 1787.54 1094.57 1779.88 1088.66 1776.04 1085.71 1772.6 1082.02 1769.54 1077.6 1766.49 1073.17 1763.82 1068 1761.55 1062.1L1758.42 1052.69 1787.56 918.136C1791.62 917.205 1796.76 916.677 1802.99 916.554" fill="#3B82F6" fill-opacity="0.996" transform="matrix(1.00005 0 0 1 -1504.86 -212.42)"/></g></g></g></g></svg>