<svg width="212" height="334" xmlns="http://www.w3.org/2000/svg" xmlns:xlink="http://www.w3.org/1999/xlink" overflow="hidden"><defs><clipPath id="clip0"><rect x="1205" y="652" width="210" height="332"/></clipPath><clipPath id="clip1"><rect x="1205" y="652" width="210" height="332"/></clipPath><clipPath id="clip2"><rect x="1205" y="652" width="210" height="332"/></clipPath></defs><g transform="translate(-1204 -651)"><g clip-path="url(#clip0)"><g clip-path="url(#clip1)"><g clip-path="url(#clip2)"><path d="M280.028 446.252C291.172 428.11 291.189 399.693 276.831 383.304L276.762 383.226 276.814 383.135C279.067 379.209 280.763 375.496 282.178 371.207 283.426 367.424 284.51 363.915 286.151 360.256 281.561 355.978 276.859 351.795 272.335 347.452 268.876 344.133 265.554 340.695 262.712 336.822 255.791 327.391 252.164 315.418 249.106 304.266L242.663 302.832 242.63 302.782C237.076 294.292 232.995 277.469 233.318 267.398 233.377 265.56 233.843 260.014 236.808 263.26 240.192 266.965 244.133 278.866 245.884 284.274 248.072 249.294 268.865 237.608 297.861 223.682 305.206 220.453 312.704 217.016 319.226 212.297 325.615 207.674 331.247 201.726 336.662 196.026L336.786 195.896 336.888 196.043C342.213 203.699 347.976 210.562 354.396 217.305 358.832 221.965 363.688 226.611 367.53 231.772 371.515 237.128 373.919 242.602 375.358 249.13 377.391 258.354 377.385 268.733 376.964 278.178 379.23 272.844 382.964 264.784 387.048 260.988 389.237 258.952 391.807 258.078 393.556 261.065 395.306 264.052 395.338 269.305 395.097 272.656 394.694 278.242 393.279 284.017 391.165 289.196 388.4 295.972 385.716 309.505 375.544 302.928 373.495 309.122 371.432 315.383 369.056 321.458 367.442 325.586 365.656 329.603 363.399 333.424 361.227 337.101 358.681 340.483 355.996 343.798 352.185 348.503 348.18 353.085 344.255 357.697 344.95 367.138 349.187 376.9 353.251 385.343 358.055 395.322 363.458 405.008 367.738 415.237 377.301 438.091 378.406 458.198 361.212 477.79 369.972 472.6 379.483 466.485 386.654 459.296 391.701 454.237 395.357 448.805 397.391 441.922 399.359 435.256 399.651 427.907 399.853 420.995 400.144 411.062 400.322 401.323 401.216 391.4 402.219 384.375 406.132 378.073 408.421 371.444 419.506 339.351 421.294 303.125 406.303 271.944 400.822 260.545 403.016 252.047 403.644 240.086 405.337 218.817 399.111 195.191 386.894 177.646 374.023 159.161 355.088 148.076 332.056 150.644 322.62 148.569 309.767 145.335 300.228 146.825 241.315 156.028 229.165 190.987 227.559 245.352 226.94 266.342 220.872 288.087 215.635 308.392 213.114 318.167 210.58 328.057 208.876 338.011 207.486 346.136 206.515 355.042 207.619 363.253 212.845 402.156 282.673 434.777 249.755 477.94 284.574 459.186 283.152 436.349 270.475 402.193L270.141 401.293 270.727 402.053C282.533 417.348 282.054 428.163 280.028 446.252Z" fill-rule="evenodd" transform="matrix(1 0 0 1.00152 997.859 505.332)"/></g></g></g></g></svg>