<svg width="180" height="136" xmlns="http://www.w3.org/2000/svg" xmlns:xlink="http://www.w3.org/1999/xlink" overflow="hidden"><defs><clipPath id="clip0"><rect x="208" y="647" width="178" height="134"/></clipPath><clipPath id="clip1"><rect x="208" y="647" width="178" height="134"/></clipPath><clipPath id="clip2"><rect x="208" y="647" width="178" height="134"/></clipPath></defs><g transform="translate(-207 -646)"><g clip-path="url(#clip0)"><g clip-path="url(#clip1)"><g clip-path="url(#clip2)"><path d="M5.83427 133.98C5.83427 133.98 8.93865 120.576 13.9545 109.791 18.9708 99.0064 27.6674 120.966 41.5025 70.6096 41.5025 70.6096 44.7425 95.3678 80.4057 100.069 80.4057 100.069 68.8964 91.639 67.4374 78.0223 67.4374 78.0223 73.9218 95.6923 97.9132 99.7447 97.9132 99.7447 79.7572 94.7194 72.9489 82.2372 72.9489 82.2372 98.829 109.812 130.219 97.5178 130.219 97.5178 119.233 97.2561 111.124 85.6155 111.124 85.6155 120.018 95.2941 135.189 96.6021 150.362 97.9101 162.759 101.739 169.585 133.98 169.585 133.98 177.603 109.617 177.603 93.094 177.603 76.5708 156.18 51.5469 140.484 42.3903 140.484 42.3903 161.046 51.9565 172.412 71.5124 172.412 71.5124 174.25 19.8653 103.047 24.3782 103.047 24.3782 136.043 17.3467 156.278 33.3306 156.278 33.3306 127.155-20.6139 68.4916 20.6458 68.4916 20.6458 79.4422 6.17565 102.907 2.06919 102.907 2.06919 41.8979-8.68596 50.3064 31.4006 50.3064 31.4006 42.1274 17.0053 53.9004 4.48162e-15 53.9004 4.48162e-15 22.9657 7.64802 39.0119 36.7318 39.0119 36.7318 23.6343 33.389 15.7785 34.559 7.92239 35.7294 3.57664 54.1156 2.57378 62.1389 2.57378 62.1389 11.2657 45.9252 28.3147 47.9313 28.3147 47.9313 7.93579 47.5182-4.03346e-14 76.8058-4.03346e-14 76.8058 6.29076 65.6442 15.7202 59.2147 15.7202 59.2147-10.3696 83.7663 5.83427 133.98Z" fill="#B4A242" fill-rule="evenodd" transform="matrix(1.00224 0 0 1 208 647.01)"/></g></g></g></g></svg>