<svg width="189" height="125" xmlns="http://www.w3.org/2000/svg" xmlns:xlink="http://www.w3.org/1999/xlink" overflow="hidden"><g transform="translate(-425 -645)"><path d="M17.919 124.929C17.919 124.929 1.02413 93.7254 0.715305 63.8551L14.2652 75.5566C14.2652 75.5566-4.51891 42.6072 1.02413 17.9689 1.02413 17.9689 12.4168 35.8311 30.279 35.8311 30.279 35.8311 19.4994 29.055 13.9564 21.9723 13.9564 21.9723 39.0307 23.7072 60.3899 15.0373 81.7491 6.36508 100.947-0.990073 128.557 21.0981 128.557 21.0981 107.366-1.68721 77.9024 6.27424 77.9024 6.27424 110.561-8.19081 142.841 24.5702 142.841 24.5702 130.955 6.7443 121.32 3.22701e-15 121.32 3.22701e-15 160.287 14.3515 154.192 43.7153 154.192 43.7153 172.291 31.8958 185.405 52.0265 185.405 52.0265 173.769 43.5314 163.058 50.5505 163.058 50.5505 180.804 52.5806 187.389 59.8018 193.972 67.0229 177.795 124.929 177.795 124.929 177.795 124.929 174.221 99.7317 161.902 96.1211 149.583 92.5105 148.309 87.626 141.301 61.7138 141.301 61.7138 141.571 92.1403 159.381 106.885 159.381 106.885 137.813 94.0864 131.652 72.2094 131.652 72.2094 130.592 88.5638 116.574 99.3956 116.574 99.3956 130.167 87.0764 122.521 60.3149 122.521 60.3149 128.918 86.9039 96.4322 102.291 96.4322 102.291 104.248 86.9039 103.515 68.8282 103.515 68.8282 97.4086 95.2082 74.2055 106.199 74.2055 106.199 79.8235 89.102 79.09 75.6679 79.09 75.6679 61.5049 92.0336 56.8633 109.131 56.8633 109.131 50.7571 91.3001 55.8869 77.1348 55.8869 77.1348 47.0943 95.2082 56.1321 111.817 56.1321 111.817 45.1391 101.56 51.2453 79.0877 51.2453 79.0877 39.6869 90.1602 38.7468 106.882 38.7468 106.882 33.1107 98.4259 33.1107 83.7724 33.1107 83.7724 29.843 92.4151 29.5432 101.943 29.2753 110.432 18.7955 103.771 17.919 124.929Z" fill-rule="evenodd" transform="matrix(1 0 0 1.00048 425.023 645)"/></g></svg>