<svg width="190" height="126" xmlns="http://www.w3.org/2000/svg" xmlns:xlink="http://www.w3.org/1999/xlink" overflow="hidden"><g transform="translate(-951 -656)"><g><g><g><path d="M17.7841 123.989C17.7841 123.989 1.01643 93.0202 0.709923 63.3747L14.1579 74.9882C14.1579 74.9882-4.48491 42.2866 1.01643 17.8337 1.01643 17.8337 12.3234 35.5615 30.0512 35.5615 30.0512 35.5615 19.3527 28.8364 13.8514 21.807 13.8514 21.807 38.737 23.5289 59.9355 14.9242 81.1341 6.31719 100.187-0.982624 127.59 20.9394 127.59 20.9394 106.558-1.67452 77.3163 6.22704 77.3163 6.22704 109.729-8.12918 141.766 24.3853 141.766 24.3853 129.97 6.69356 120.407 3.20273e-15 120.407 3.20273e-15 159.081 14.2435 153.032 43.3864 153.032 43.3864 170.995 31.6558 184.01 51.6351 184.01 51.6351 172.462 43.2039 161.831 50.1702 161.831 50.1702 179.444 52.185 185.98 59.3518 192.513 66.5187 176.458 123.989 176.458 123.989 176.458 123.989 172.91 98.9813 160.684 95.3979 148.457 91.8145 147.193 86.9667 140.238 61.2495 140.238 61.2495 140.506 91.4471 158.182 106.081 158.182 106.081 136.776 93.3785 130.662 71.6662 130.662 71.6662 129.609 87.8975 115.697 98.6478 115.697 98.6478 129.188 86.4213 121.6 59.8612 121.6 59.8612 127.948 86.25 95.7066 101.521 95.7066 101.521 103.464 86.25 102.736 68.3104 102.736 68.3104 96.6757 94.4919 73.6472 105.4 73.6472 105.4 79.2229 88.4316 78.495 75.0986 78.495 75.0986 61.0421 91.3412 56.4355 108.309 56.4355 108.309 50.3752 90.6132 55.4664 76.5545 55.4664 76.5545 46.74 94.4919 55.7098 110.976 55.7098 110.976 44.7995 100.796 50.8598 78.4927 50.8598 78.4927 39.3883 89.4819 38.4553 106.078 38.4553 106.078 32.8615 97.6854 32.8615 83.1421 32.8615 83.1421 29.6184 91.7198 29.321 101.176 29.055 109.601 18.6541 102.991 17.7841 123.989Z" fill="#3E2106" fill-rule="evenodd" transform="matrix(1.00225 0 0 1 952.023 657)"/></g></g></g></g></svg>