<svg width="514" height="274" xmlns="http://www.w3.org/2000/svg" xmlns:xlink="http://www.w3.org/1999/xlink" overflow="hidden"><g transform="translate(1 1)"><g><g><g><path d="M0 0 0 247.555C3.75874 249.225 7.7263 250.374 11.7983 251.314 17.332 252.567 22.9701 253.089 28.7126 253.089 37.5874 253.089 46.5666 251.731 54.9194 249.33 60.4531 247.764 65.778 245.78 70.7896 243.379 74.0263 241.917 77.1586 240.246 80.1865 238.471 81.6482 237.636 83.0055 236.801 84.3629 235.861 84.5717 235.757 84.8849 235.548 85.0937 235.443 88.6437 233.146 92.0892 230.745 95.4303 228.135 96.6832 227.195 97.9361 226.151 99.189 225.107 101.904 222.914 104.618 220.617 107.229 218.216 108.273 217.276 109.212 216.336 110.256 215.397 117.252 208.819 123.934 201.719 130.512 194.515 131.452 193.471 132.391 192.531 133.227 191.487 141.475 182.403 149.514 173.111 157.867 164.445 158.494 163.714 159.224 163.088 159.851 162.357 160.686 161.417 161.626 160.582 162.461 159.642 162.774 159.329 163.088 159.016 163.401 158.702 166.22 155.883 169.143 153.064 172.067 150.454 173.007 149.619 173.946 148.784 174.886 147.948 175.721 147.113 176.661 146.382 177.601 145.651 177.809 145.442 178.018 145.338 178.227 145.129 178.853 144.607 179.375 144.189 180.002 143.667 180.211 143.459 180.42 143.354 180.628 143.145 181.986 141.997 183.447 140.953 184.805 139.909 186.371 138.76 187.937 137.612 189.608 136.463 196.812 131.452 204.434 127.171 212.473 123.621 224.898 118.087 238.158 114.224 251.418 110.987 253.819 110.361 256.221 109.839 258.622 109.317 265.2 107.855 271.882 106.393 278.564 105.036 283.681 103.992 288.797 102.843 293.808 101.799 300.49 100.338 307.068 98.667 313.646 96.892L313.646 96.892C319.284 95.3259 324.922 93.5509 330.456 91.5671 330.456 91.5671 330.56 91.5671 330.56 91.5671 331.396 91.2539 332.231 90.9407 333.066 90.6274 333.484 90.523 333.902 90.3142 334.215 90.2098 334.215 90.2098 334.215 90.2098 334.215 90.2098 337.974 88.7481 341.732 87.1819 345.387 85.5114 347.057 84.7805 348.623 84.0496 350.294 83.2144 352.695 82.0658 355.097 80.8129 357.498 79.56 358.229 79.1424 359.064 78.7247 359.795 78.3071 363.136 76.5322 366.373 74.6528 369.505 72.7734 371.593 71.5205 373.682 70.2676 375.665 69.0147 376.396 68.597 377.127 68.1794 377.858 67.6573 379.424 66.7177 380.99 65.6736 382.556 64.6295 385.271 62.8545 387.986 61.0795 390.596 59.2002 395.608 55.7547 400.619 52.3091 405.631 48.7592 405.735 48.7592 405.735 48.6548 405.84 48.6548 406.362 48.3416 406.884 47.924 407.301 47.6107 408.137 47.0887 408.868 46.4622 409.598 45.9402 431.42 30.6964 453.242 15.3482 475.063 0L0 0Z" fill="#7BBCDC" transform="matrix(1 0 0 1.0012 0.301181 0.104535)"/><path d="M0 0 0 271.569C0.208819 271.569 0.417638 271.569 0.730866 271.465 4.69843 270.525 8.35276 268.959 11.7983 267.079 18.2717 263.634 23.8054 258.727 28.7126 253.089 32.7846 248.39 36.2301 243.274 39.3624 238.054 45.0005 228.448 49.1769 218.111 53.6665 207.984L53.6665 207.984C54.5018 206.104 55.337 204.329 56.1723 202.554 57.7384 199.109 59.409 195.768 61.2884 192.531L61.2884 192.531C62.3325 190.652 63.481 188.668 64.6295 186.789 65.5692 185.222 66.6133 183.761 67.6573 182.195 67.6573 182.195 67.6573 182.195 67.6573 182.195 72.2514 175.826 77.7851 170.187 84.3629 165.698 85.7202 164.758 87.1819 163.818 88.6437 162.983L88.6437 162.983C90.3142 162.044 91.9847 161.104 93.6553 160.269L93.6553 160.269C94.9082 159.642 96.2655 159.016 97.5185 158.494 98.1449 158.18 98.7714 157.972 99.5022 157.658 100.964 157.032 102.426 156.51 103.887 155.988 105.767 155.361 107.646 154.735 109.526 154.213 109.734 154.213 109.943 154.108 110.048 154.004 110.361 153.9 110.57 153.9 110.883 153.795 112.136 153.482 113.389 153.169 114.642 152.855 114.955 152.751 115.164 152.751 115.477 152.647 118.818 151.811 122.055 151.185 125.396 150.663 131.66 149.619 138.029 148.888 144.398 148.366 145.964 148.261 147.426 148.053 148.992 147.948 155.048 147.531 160.999 147.113 167.055 146.695 167.16 146.695 167.264 146.695 167.473 146.695 169.248 146.591 171.023 146.382 172.798 146.278 174.468 146.173 176.139 145.964 177.809 145.86 178.853 145.756 179.898 145.651 180.837 145.547 184.805 145.129 188.668 144.607 192.635 143.981 204.538 142.101 216.232 138.969 227.091 133.435 238.993 127.38 249.017 118.505 258.831 109.526 264.052 104.827 269.168 100.024 274.597 95.5347 288.692 83.8408 304.562 74.0263 321.268 66.6133 323.356 65.6736 325.549 64.7339 327.741 63.8986 334.528 61.184 341.419 58.8869 348.414 56.9032L348.414 56.9032C354.888 55.1282 361.466 53.5621 368.043 52.3091 369.088 52.1003 370.027 51.8915 371.071 51.6827 371.907 51.4739 372.846 51.3695 373.682 51.2651 374.412 51.1606 375.248 50.9518 375.979 50.8474 379.006 50.3254 382.034 49.9077 385.062 49.3857 387.046 49.0725 389.03 48.7592 391.013 48.5504 391.64 48.446 392.266 48.3416 392.893 48.3416 393.728 48.2372 394.563 48.1328 395.503 48.0284 396.13 47.924 396.652 47.924 397.278 47.8195 399.679 47.5063 402.081 47.1931 404.482 46.8799L404.482 46.8799C406.257 46.671 408.032 46.3578 409.807 46.149 443.323 41.555 478.091 34.8728 502.836 10.2321 505.968 7.09984 508.787 3.65433 511.398 0.104409L0 0.104409Z" fill="#558BBA" transform="matrix(1 0 0 1.0012 0.301181 0.104535)"/><path d="M436.432 0C419.204 11.3806 399.262 19.5246 380.155 26.2068 378.276 26.8332 376.501 27.4597 374.621 28.0861 383.183 19.3158 391.118 9.81449 398.427-0.104409L391.953-0.104409C383.287 11.485 373.786 22.3436 363.032 32.0537L363.032 32.0537C349.354 36.7521 335.676 41.4506 322.416 47.4019 313.124 51.4739 304.04 56.1723 295.479 61.706 287.961 66.6133 280.862 72.0425 273.657 77.3674L273.657 77.3674C269.272 78.6203 264.887 79.7688 260.502 80.8129 243.901 84.9893 227.195 88.5392 210.594 92.6112 199.735 95.2214 188.772 97.9361 178.123 101.486L178.123 101.486C171.962 101.277 165.802 101.277 159.642 102.112 150.141 103.365 141.266 106.602 133.435 111.927 125.605 117.252 118.922 123.934 112.658 131.034 103.887 141.057 96.2655 152.125 88.6437 162.983L88.6437 162.983C86.7643 165.593 84.8849 168.308 83.0055 170.918 81.335 172.276 79.6644 173.529 77.9939 174.886 74.6528 177.392 71.2073 179.898 67.6573 182.195 67.6573 182.195 67.6573 182.195 67.6573 182.195 47.4019 195.663 24.1186 205.791 0 207.044L0 212.16C21.4039 211.012 42.5991 203.39 61.184 192.531L61.184 192.531C63.2721 191.278 65.3603 190.025 67.3441 188.772 68.9103 187.728 70.372 186.789 71.9381 185.744 67.0309 191.8 61.8104 197.438 56.1723 202.659 51.2651 207.044 46.0446 211.116 40.3021 214.457 28.0861 221.766 14.1997 226.464 7.41874e-15 228.03L7.41874e-15 230.641C8.7704 229.701 17.4364 227.613 25.6847 224.376 35.9169 220.408 45.2093 214.875 53.5621 208.088L53.5621 208.088C59.6178 203.181 65.2559 197.543 70.372 191.591 73.5043 187.937 76.4277 184.178 79.3512 180.42L79.3512 180.42C89.6877 172.693 99.5022 164.236 108.899 155.361 109.317 154.944 109.734 154.63 110.048 154.213 122.786 142.206 134.897 129.155 149.828 119.862 160.999 112.971 173.424 108.377 185.953 104.723L185.953 104.723C193.471 105.245 200.988 105.976 208.401 106.08 218.111 106.184 227.926 105.245 237.114 102.008 245.884 98.9802 254.133 94.3862 261.859 89.1657 264.26 87.5996 266.557 85.929 268.854 84.3629 268.854 84.3629 268.854 84.3629 268.854 84.3629L268.854 84.3629C295.896 77.263 322.521 67.9706 345.804 52.4136 354.575 46.5666 362.719 39.8844 370.236 32.6802L370.236 32.6802C394.459 24.4318 419.935 15.1394 441.13 0.313228L436.432 0.313228ZM160.582 108.273C144.085 115.581 130.721 127.066 117.878 139.491 111.196 145.964 104.409 152.438 97.5185 158.598 95.2214 160.582 93.0288 162.566 90.7318 164.549 91.6715 163.192 92.7156 161.73 93.6553 160.373L93.6553 160.373C96.7876 155.883 100.024 151.394 103.261 146.904 114.642 131.66 128.215 114.746 146.591 107.959 154.526 105.036 162.67 104.096 171.023 103.992 167.473 105.349 164.027 106.706 160.582 108.273ZM220.722 102.843C211.638 103.783 202.45 103.261 193.366 102.53 195.872 101.799 198.378 101.173 200.884 100.546 217.589 96.2655 234.399 92.6112 251.105 88.6437 254.55 87.8084 258.1 86.9731 261.546 86.0334 249.121 94.3862 235.861 101.277 220.722 102.843ZM352.278 41.2417C331.187 57.5296 306.442 67.7618 281.07 75.2792 290.572 68.3882 300.073 61.4972 310.514 56.0679 325.653 48.1328 341.732 42.2858 357.916 36.6477 356.036 38.2139 354.157 39.78 352.278 41.2417Z" fill="#073F68" transform="matrix(1 0 0 1.0012 0.301181 0.104535)"/></g></g></g></g></svg>