<svg width="274" height="274" xmlns="http://www.w3.org/2000/svg" xmlns:xlink="http://www.w3.org/1999/xlink" overflow="hidden"><g transform="translate(4 1)"><g><g><g><path d="M101.528 0.0169067C101.448 0.0169067 101.37 0.0490112 101.313 0.106079L-2.89392 104.313C-2.95105 104.37-2.98303 104.448-2.98303 104.528L-2.98303 271.666C-2.98303 271.789-2.90894 271.9-2.79517 271.947-2.75745 271.963-2.71777 271.97-2.67859 271.97-2.59949 271.97-2.52161 271.939-2.46338 271.881L268.88 0.53833C268.938 0.481262 268.97 0.403809 268.97 0.323059L268.97 0.32196C268.97 0.153809 268.833 0.0175171 268.665 0.0175171L101.528 0.0169067Z" fill="#2196F2"/><path d="M177.122 0.0172119 62.3606 109.733C55.6625 115.624 33.8774 139.055-2.99487 180.027L-2.98303 180.028-2.98303 271.666C-2.98303 271.789-2.90894 271.9-2.79517 271.947-2.75745 271.963-2.71777 271.97-2.67859 271.97-2.59949 271.97-2.52161 271.939-2.46338 271.881L268.88 0.53833C268.938 0.481262 268.97 0.403809 268.97 0.323059 268.97 0.153809 268.833 0.0175171 268.665 0.0175171L177.122 0.0172119Z" fill="#78D5FE" fill-opacity="0.996"/></g></g></g></g></svg>